<svg width="180" height="180" viewBox="0 0 180 180" fill="none" xmlns="http://www.w3.org/2000/svg">
  <rect width="180" height="180" rx="20" fill="#1a1a2e"/>

  <!-- Carte RDC stylisée en orange (silhouette pixelisée simplifiée) -->
  <!-- Rangée 1 -->
  <rect x="28" y="28" width="10" height="10" fill="#C8621A"/>
  <rect x="40" y="28" width="10" height="10" fill="#C8621A"/>
  <rect x="52" y="28" width="10" height="10" fill="#C8621A"/>
  <rect x="64" y="28" width="10" height="10" fill="#C8621A"/>
  <!-- Rangée 2 -->
  <rect x="22" y="40" width="10" height="10" fill="#C8621A"/>
  <rect x="34" y="40" width="10" height="10" fill="#C8621A"/>
  <rect x="46" y="40" width="10" height="10" fill="#C8621A"/>
  <rect x="58" y="40" width="10" height="10" fill="#C8621A"/>
  <rect x="70" y="40" width="10" height="10" fill="#C8621A"/>
  <rect x="82" y="40" width="10" height="10" fill="#C8621A"/>
  <!-- Rangée 3 -->
  <rect x="22" y="52" width="10" height="10" fill="#C8621A"/>
  <rect x="34" y="52" width="10" height="10" fill="#C8621A"/>
  <rect x="46" y="52" width="10" height="10" fill="#C8621A"/>
  <rect x="58" y="52" width="10" height="10" fill="#C8621A"/>
  <rect x="70" y="52" width="10" height="10" fill="#C8621A"/>
  <rect x="82" y="52" width="10" height="10" fill="#C8621A"/>
  <rect x="94" y="52" width="10" height="10" fill="#C8621A"/>
  <!-- Rangée 4 -->
  <rect x="28" y="64" width="10" height="10" fill="#C8621A"/>
  <rect x="40" y="64" width="10" height="10" fill="#C8621A"/>
  <rect x="52" y="64" width="10" height="10" fill="#1a5fa8"/>
  <rect x="64" y="64" width="10" height="10" fill="#1a5fa8"/>
  <rect x="76" y="64" width="10" height="10" fill="#C8621A"/>
  <rect x="88" y="64" width="10" height="10" fill="#C8621A"/>
  <rect x="100" y="64" width="10" height="10" fill="#C8621A"/>
  <!-- Rangée 5 -->
  <rect x="28" y="76" width="10" height="10" fill="#C8621A"/>
  <rect x="40" y="76" width="10" height="10" fill="#C8621A"/>
  <rect x="52" y="76" width="10" height="10" fill="#1a5fa8"/>
  <rect x="64" y="76" width="10" height="10" fill="#1a5fa8"/>
  <rect x="76" y="76" width="10" height="10" fill="#C8621A"/>
  <rect x="88" y="76" width="10" height="10" fill="#C8621A"/>
  <rect x="100" y="76" width="10" height="10" fill="#C8621A"/>
  <!-- Rangée 6 -->
  <rect x="34" y="88" width="10" height="10" fill="#C8621A"/>
  <rect x="46" y="88" width="10" height="10" fill="#C8621A"/>
  <rect x="58" y="88" width="10" height="10" fill="#C8621A"/>
  <rect x="70" y="88" width="10" height="10" fill="#C8621A"/>
  <rect x="82" y="88" width="10" height="10" fill="#C8621A"/>
  <!-- Rangée 7 -->
  <rect x="40" y="100" width="10" height="10" fill="#C8621A"/>
  <rect x="52" y="100" width="10" height="10" fill="#C8621A"/>
  <rect x="64" y="100" width="10" height="10" fill="#C8621A"/>
  <rect x="76" y="100" width="10" height="10" fill="#C8621A"/>
  <!-- Rangée 8 -->
  <rect x="46" y="112" width="10" height="10" fill="#C8621A"/>
  <rect x="58" y="112" width="10" height="10" fill="#C8621A"/>
  <rect x="70" y="112" width="10" height="10" fill="#C8621A"/>
  <!-- Rangée 9 -->
  <rect x="52" y="124" width="10" height="10" fill="#C8621A"/>
  <rect x="64" y="124" width="10" height="10" fill="#C8621A"/>
  <!-- Rangée 10 -->
  <rect x="64" y="136" width="10" height="10" fill="#C8621A"/>

  <!-- Label CAMI (rectangle blanc avec bordure bleue + texte bleu) -->
  <rect x="90" y="88" width="68" height="44" rx="5" fill="white" stroke="#1a5fa8" stroke-width="3"/>
  <text x="124" y="118" font-family="Arial, sans-serif" font-size="20" font-weight="bold" fill="#1a5fa8" text-anchor="middle">CAMI</text>
</svg>
